<?xml version="1.0" encoding="utf-8"?>
<svg width="472px" height="359px" viewBox="0 0 472 359" version="1.1" xmlns:xlink="http://www.w3.org/1999/xlink" xmlns="http://www.w3.org/2000/svg">
  <defs>
    <linearGradient x1="0.61180997" y1="0.36819997" x2="0.40787998" y2="0.5554" id="gradient_1">
      <stop offset="0" stop-color="#78B46A" />
      <stop offset="0.03" stop-color="#7F3500" />
      <stop offset="1" stop-color="#FFFFFF" />
    </linearGradient>
    <linearGradient x1="0.82185996" y1="0.28519" x2="0.29852" y2="0.62464" id="gradient_2">
      <stop offset="0" stop-color="#78B46A" />
      <stop offset="0.03" stop-color="#7F3500" />
      <stop offset="1" stop-color="#FFFFFF" />
    </linearGradient>
    <linearGradient x1="0.80660003" y1="0.21864" x2="0.21556999" y2="0.66620004" id="gradient_3">
      <stop offset="0" stop-color="#78B46A" />
      <stop offset="0.03" stop-color="#7F3500" />
      <stop offset="1" stop-color="#FFFFFF" />
    </linearGradient>
    <linearGradient x1="0.81016" y1="0.60589" x2="0.67462" y2="0.55277" id="gradient_4">
      <stop offset="0" stop-color="#FFFFFF" stop-opacity="0" />
      <stop offset="0.98999995" stop-color="#DC841E" />
    </linearGradient>
    <linearGradient x1="0.82183" y1="0.27537" x2="0.29857" y2="0.62324" id="gradient_5">
      <stop offset="0" stop-color="#78B46A" />
      <stop offset="0.03" stop-color="#7F3500" />
      <stop offset="1" stop-color="#FFFFFF" />
    </linearGradient>
    <path d="M0 0L472 0L472 359L0 359L0 0Z" id="path_1" />
    <path d="M0 0L149.641 0L149.641 144.157L0 144.157L0 0Z" id="path_2" />
    <clipPath id="mask_1">
      <use xlink:href="#path_1" />
    </clipPath>
    <clipPath id="mask_2">
      <use xlink:href="#path_2" />
    </clipPath>
  </defs>
  <g id="illustration-woman-online-desktop">
    <path d="M0 0L472 0L472 359L0 359L0 0Z" id="Background" fill="none" fill-rule="evenodd" stroke="none" />
    <g clip-path="url(#mask_1)">
      <g id="Group" transform="translate(0.14133644 0.8113265)">
        <path d="M228.877 274.229L9.17166 144.237C2.17666 140.299 -3.81834 133.847 2.99666 129.615L223.484 2.39308C226.789 0.34108 231.811 -1.00592 235.18 0.956085L465.775 134.963C472.769 139.029 474.025 150.355 467.055 154.459L257.831 274.024C248.897 279.214 237.884 279.292 228.878 274.229L228.877 274.229Z" transform="translate(0 80.16259)" id="Shape" fill="#5B36A0" fill-rule="evenodd" stroke="none" />
        <path d="M228.877 274.229L9.17166 144.237C2.17666 140.299 -3.81834 133.847 2.99666 129.615L223.484 2.39308C226.789 0.34108 231.811 -1.00592 235.18 0.956085L465.775 134.963C472.769 139.029 474.025 150.355 467.055 154.459L257.831 274.024C248.897 279.214 237.884 279.292 228.878 274.229L228.877 274.229Z" transform="translate(0 74.16259)" id="Shape" fill="#6862E6" fill-rule="evenodd" stroke="none" />
        <path d="M43.353 0L0 24.767C0 24.767 66.783 65.567 80.439 71.313L105.407 35.4" transform="translate(203.63866 176.88167)" id="Shape" fill="url(#gradient_1)" fill-opacity="0.25" style="mix-blend-mode: multiply;" fill-rule="evenodd" stroke="none" />
        <path d="M86.729 24.715L43.364 0L0 24.767C0 24.767 22.585 38.567 44.171 51.24C57.879 41.53 71.599 31.719 86.729 24.715L86.729 24.715Z" transform="translate(145.28665 270.98666)" id="Shape" fill="url(#gradient_2)" fill-opacity="0.25" style="mix-blend-mode: multiply;" fill-rule="evenodd" stroke="none" />
        <path d="M27.505 0L0 15.712C0 15.712 2.331 30.116 15.988 35.862L51.998 12.775" transform="translate(111.081665 143.07167)" id="Shape" fill="url(#gradient_3)" fill-opacity="0.46" style="mix-blend-mode: multiply;" fill-rule="evenodd" stroke="none" />
        <path d="M0 11.697C0 5.23692 7.4276 0 16.59 0C25.7524 0 33.18 5.23692 33.18 11.697C33.18 18.1571 25.7524 23.394 16.59 23.394C7.4276 23.394 0 18.1571 0 11.697Z" transform="translate(135.46066 135.38966)" id="Ellipse" fill="#68E1FD" fill-rule="evenodd" stroke="none" />
        <path d="M0 5.092C0 2.27977 5.56331 0 12.426 0C19.2887 0 24.852 2.27977 24.852 5.092C24.852 7.90423 19.2887 10.184 12.426 10.184C5.56331 10.184 0 7.90423 0 5.092Z" transform="translate(139.61166 135.09367)" id="Ellipse" fill="#974C26" fill-rule="evenodd" stroke="none" />
        <path d="M12.3137 34.143C12.3137 31.847 12.2377 29.552 12.0577 27.256C12.0067 26.657 11.9517 26.063 11.8917 25.473L11.7637 24.306C11.7637 23.959 11.5837 23.023 11.5837 23.113C11.5067 22.643 11.4257 22.177 11.3407 21.715C9.98582 13.9222 6.9617 6.51454 2.47569 0C0.787811 4.02204 -0.0540009 8.3485 0.00268555 12.71C0.00268555 13.994 0.105682 15.276 0.207687 16.482L0.207687 17.239C0.310684 17.854 0.42569 18.521 0.55368 19.085C1.04227 21.4246 1.69725 23.7265 2.51366 25.9729C3.24788 28.0409 4.14331 30.0482 5.19173 31.9761C6.32225 34.1459 7.54878 36.2643 8.86768 38.325C9.8192 39.829 10.8147 41.3047 11.8528 42.7502C12.1607 39.89 12.3017 37.016 12.3137 34.143L12.3137 34.143ZM5.7944 8.32399C5.86366 8.02859 5.86366 7.72238 5.7944 7.42699C6.12773 7.75098 6.45685 8.08498 6.78069 8.42699C6.45586 8.33947 6.11776 8.30464 5.78069 8.32399L5.7944 8.32399L5.7944 8.32399Z" transform="translate(139.27496 97.55168)" id="Shape" fill="#999A1C" fill-rule="evenodd" stroke="none" />
        <path d="M5.08508 34.066C6.35524 32.1499 7.52289 30.1678 8.58308 28.128C8.86508 27.598 9.13808 27.068 9.40309 26.538L9.92809 25.473L10.4281 24.37L10.9781 23.087C14.049 15.7892 15.5042 7.91331 15.2441 0C11.6425 2.47057 8.5898 5.6581 6.2771 9.36301C5.61307 10.4318 4.99321 11.5274 4.41911 12.647L4.1631 13.121L4.09911 13.327C3.85611 13.904 3.61211 14.481 3.38211 15.071C2.53195 17.3063 1.84253 19.5994 1.31912 21.933C0.820755 24.0715 0.491074 26.2459 0.333115 28.436C0.106857 30.8704 -0.00427246 33.3141 0.00012207 35.7591C0.00012207 37.67 0.00012207 39.415 0.115128 41.095C1.81912 38.825 3.53513 36.49 5.08513 34.066L5.08508 34.066ZM13.5415 8.812C13.8357 8.58601 14.0548 8.31901 14.1813 8.02901C14.3195 8.47401 14.4386 8.90201 14.5401 9.312C14.246 9.11201 13.9077 8.94401 13.5401 8.812L13.5415 8.812Z" transform="translate(150.76958 99.398674)" id="Shape" fill="#999A1C" fill-rule="evenodd" stroke="none" />
        <path d="M16.4907 41.634C17.7947 40.9848 19.0765 40.2917 20.3337 39.556L21.2937 38.966L21.9227 38.568L22.5377 38.132L23.2547 37.606C27.2604 34.6617 30.5817 30.8857 32.9907 26.537C30.2561 26.7129 27.5872 27.451 25.1507 28.705C24.4457 29.065 23.7667 29.462 23.0877 29.872L22.7937 30.052L22.6907 30.142L21.7427 30.847C20.5616 31.7796 19.4487 32.7955 18.4127 33.887C17.4548 34.8809 16.5764 35.9485 15.7857 37.08C14.8963 38.3388 14.042 39.622 13.2236 40.9281C12.6434 41.8862 12.0922 42.8616 11.5707 43.853C13.2237 43.16 14.8767 42.442 16.4907 41.633L16.4907 41.634ZM29.1987 30.7992C29.571 30.7287 29.9126 30.609 30.1987 30.449C30.0057 30.7881 29.7962 31.121 29.5662 31.449C29.4978 31.2273 29.3739 31.0133 29.1987 30.8141L29.1987 30.7992L29.1987 30.7992ZM12.3137 34.143C12.3137 31.847 12.2377 29.552 12.0577 27.256C12.0067 26.657 11.9517 26.063 11.8917 25.473L11.7637 24.306C11.7637 23.959 11.5837 23.023 11.5837 23.113C11.5067 22.643 11.4257 22.177 11.3407 21.715C9.98582 13.9222 6.9617 6.51454 2.47569 0C0.787811 4.02204 -0.0540009 8.3485 0.00268555 12.71C0.00268555 13.994 0.105682 15.276 0.207687 16.482L0.207687 17.239C0.310684 17.854 0.42569 18.521 0.55368 19.085C1.04227 21.4246 1.69725 23.7265 2.51366 25.9729C3.24788 28.0409 4.14331 30.0482 5.19173 31.9761C6.32225 34.1459 7.54878 36.2643 8.86768 38.325C9.8192 39.829 10.8147 41.3047 11.8528 42.7502C12.1607 39.89 12.3017 37.016 12.3137 34.143L12.3137 34.143ZM5.7944 8.32399C5.86366 8.02859 5.86366 7.72238 5.7944 7.42699C6.12773 7.75098 6.45685 8.08498 6.78069 8.42699C6.45586 8.33947 6.11776 8.30464 5.78069 8.32399L5.7944 8.32399L5.7944 8.32399Z" transform="translate(139.27496 97.55168)" id="Shape" fill="#999A1C" fill-rule="evenodd" stroke="none" />
        <path d="M5.08508 34.066C6.35524 32.1499 7.52289 30.1678 8.58308 28.128C8.86508 27.598 9.13808 27.068 9.40309 26.538L9.92809 25.473L10.4281 24.37L10.9781 23.087C14.049 15.7892 15.5042 7.91331 15.2441 0C11.6425 2.47057 8.5898 5.6581 6.2771 9.36301C5.61307 10.4318 4.99321 11.5274 4.41911 12.647L4.1631 13.121L4.09911 13.327C3.85611 13.904 3.61211 14.481 3.38211 15.071C2.53195 17.3063 1.84253 19.5994 1.31912 21.933C0.820755 24.0715 0.491074 26.2459 0.333115 28.436C0.106857 30.8704 -0.00427246 33.3141 0.00012207 35.7591C0.00012207 37.67 0.00012207 39.415 0.115128 41.095C1.81912 38.825 3.53513 36.49 5.08513 34.066L5.08508 34.066ZM13.5415 8.812C13.8357 8.58601 14.0548 8.31901 14.1813 8.02901C14.3195 8.47401 14.4386 8.90201 14.5401 9.312C14.246 9.11201 13.9077 8.94401 13.5401 8.812L13.5415 8.812Z" transform="translate(150.76958 99.398674)" id="Shape" fill="#999A1C" fill-rule="evenodd" stroke="none" />
        <path d="M4.92 15.097C6.22403 14.4478 7.50577 13.7547 8.763 13.019L9.72301 12.429L10.352 12.031L10.967 11.595L11.684 11.069C15.6897 8.12471 19.011 4.34868 21.42 0C18.6854 0.175949 16.0165 0.913986 13.58 2.168C12.875 2.528 12.196 2.925 11.517 3.33501L11.223 3.515L11.12 3.605L10.172 4.31C8.99091 5.24258 7.87805 6.25851 6.842 7.35001C5.88406 8.34389 5.00569 9.4115 4.21501 10.543C3.32565 11.8018 2.4713 13.085 1.65295 14.3911C1.07272 15.3493 0.5215 16.3247 0 17.316C1.65302 16.623 3.30602 15.905 4.92001 15.096L4.92 15.097ZM17.628 4.26225C18.0003 4.1917 18.3419 4.07205 18.628 3.91199C18.435 4.25111 18.2255 4.58402 17.9956 4.91199C17.9271 4.69036 17.8032 4.47629 17.628 4.2771L17.628 4.26225L17.628 4.26225Z" transform="translate(150.84566 124.08867)" id="Shape" fill="#999A1C" fill-rule="evenodd" stroke="none" />
        <path d="M27.1239 0L3.12987 11.543C1.28696 12.4309 0.0847168 14.2635 0.00428772 16.3076C-0.0761261 18.3516 0.978409 20.2731 2.74586 21.303L59.6129 54.523C62.1667 56.0171 65.4445 55.2309 67.0429 52.741L80.8658 31.218" transform="translate(237.0848 167.21068)" id="Shape" fill="#A1482D" fill-rule="evenodd" stroke="none" />
        <path d="M204.268 111.533L12.938 1.15067C10.2673 -0.387123 6.97911 -0.383311 4.31201 1.16067C1.64322 2.70625 4.57764e-05 5.55664 0 8.64067L0 123.474C0 126.04 1.3676 128.41 3.5882 129.694L207.56 247.579C208.992 248.41 210.759 248.411 212.192 247.582C213.626 246.752 214.507 245.22 214.504 243.564L214.504 129.207C214.5 121.909 210.596 115.169 204.268 111.533L204.268 111.533Z" transform="translate(190.44466 0)" id="Shape" fill="#F47B56" fill-rule="evenodd" stroke="none" />
        <path d="M6.51999 0.577153L192.072 107.457C196.105 109.784 198.591 114.087 198.592 118.743L198.592 204.819C198.59 206.495 197.697 208.043 196.248 208.884C194.8 209.724 193.013 209.729 191.56 208.898L2.33099 100.235C0.888916 99.4071 -0.000198364 97.871 0 96.2081L0 4.36015C0 2.80515 0.826996 1.36815 2.17101 0.588153C3.51498 -0.192103 5.1731 -0.196296 6.52101 0.577153L6.51999 0.577153Z" transform="translate(196.87567 9.257521)" id="Shape" fill="#FFFFFF" fill-rule="evenodd" stroke="none" />
        <path d="M0.0958862 5.3614C-0.386292 2.85751 0.997223 0.486008 3.18604 0.0645142C5.37482 -0.356995 7.54007 1.33113 8.02225 3.83502C8.50443 6.33891 7.12091 8.71042 4.93213 9.13193C2.74332 9.55342 0.578064 7.86529 0.0958862 5.3614Z" transform="translate(276.5376 163.05547)" id="Ellipse" fill="#AB643C" fill-rule="evenodd" stroke="none" />
        <path d="M0 17.277L86.23 69.146L128.825 44.353L52.716 0" transform="translate(253.26866 109.338684)" id="Shape" fill="url(#gradient_4)" fill-opacity="0.32" fill-rule="evenodd" stroke="none" />
        <path d="M98.069 57.3437L4.845 0.433678C3.8287 -0.154434 2.57306 -0.143707 1.56699 0.461678C0.559998 1.06718 -0.0391846 2.17138 0.00198364 3.34568L0.00198364 35.7717C-0.00601196 36.9642 0.611389 38.0738 1.629 38.6957L94.841 94.3997C95.838 94.9667 97.061 94.9597 98.051 94.3797C99.0416 93.8002 99.6488 92.7373 99.645 91.5897L100.132 61.3597C100.205 59.7502 99.4201 58.2224 98.069 57.3447L98.069 57.3437Z" transform="translate(261.75967 58.946995)" id="Shape" fill="#E2AC00" fill-rule="evenodd" stroke="none" />
        <path d="M2.24228 15.6377C5.58527 20.3187 11.4653 21.6278 15.3603 18.5747C19.2543 15.5218 19.7033 9.25075 16.3603 4.58175C13.0153 -0.0872498 7.13528 -1.40825 3.2403 1.64475C-0.653717 4.69675 -1.10172 10.9558 2.24231 15.6377L2.24228 15.6377Z" transform="translate(335.2834 117.33993)" id="Shape" fill="#FFFFFF" fill-rule="evenodd" stroke="none" />
        <path d="M55.894 23.0569L17.871 0.136932C17.1942 -0.180199 16.3873 0.0702972 16.009 0.714935C15.6303 1.35999 15.8044 2.18726 16.411 2.62494L54.433 25.5449C55.1099 25.8621 55.9168 25.6116 56.295 24.9669C56.674 24.3221 56.5003 23.4949 55.894 23.0569L55.894 23.0569ZM54.3311 32.3689L1.92105 0.777931C1.25861 0.550438 0.528259 0.828964 0.185516 1.43979C-0.157196 2.05061 -0.0143127 2.81911 0.525055 3.26594L52.8701 34.8689C53.5469 35.1861 54.3538 34.9356 54.7321 34.2909C55.111 33.6461 54.9373 32.8189 54.3311 32.3809L54.3311 32.3679L54.3311 32.3689Z" transform="translate(272.48462 87.449745)" id="Shape" fill="#F2F2F2" fill-rule="evenodd" stroke="none" />
        <path d="M98.018 57.3307L4.84502 0.43367C3.82874 -0.154434 2.57312 -0.143707 1.56703 0.46167C0.560013 1.06717 -0.0391846 2.17136 0.0019989 3.34567L0.00201416 35.7567C-0.0134888 36.9518 0.599701 38.0673 1.61702 38.6947L94.828 94.3977C95.836 94.9777 97.078 94.9677 98.076 94.3727C99.0751 93.7765 99.6749 92.6878 99.645 91.5247L100.132 61.2947C100.176 59.693 99.3726 58.1866 98.018 57.3307L98.018 57.3307Z" transform="translate(243.20964 65.245)" id="Shape" fill="#F47B56" fill-rule="evenodd" stroke="none" />
        <path d="M2.24139 15.6383C5.58539 20.3193 11.4654 21.6283 15.3604 18.5753C19.2544 15.5223 19.7024 9.25026 16.3594 4.58226C13.0154 -0.087738 7.13538 -1.40774 3.24136 1.64426C-0.653625 4.69725 -1.10162 10.9563 2.24136 15.6383L2.24139 15.6383Z" transform="translate(316.68228 123.62442)" id="Shape" fill="#FFFFFF" fill-rule="evenodd" stroke="none" />
        <path d="M56.0337 23.0569L17.9857 0.136932C17.3089 -0.180199 16.502 0.0702972 16.1237 0.714935C15.745 1.35999 15.9191 2.18726 16.5257 2.62494L54.5477 25.5449C55.2245 25.8621 56.0315 25.6116 56.4097 24.9669C56.7887 24.3221 56.615 23.4949 56.0087 23.0569L56.0337 23.0569L56.0337 23.0569ZM54.4587 32.4329L2.06171 0.790932C1.38466 0.473969 0.577621 0.724922 0.199707 1.36993C-0.179016 2.01498 -0.00489807 2.84226 0.601685 3.27994L53.0107 34.8699C53.6875 35.1871 54.4945 34.9366 54.8727 34.2919C55.2514 33.6469 55.0773 32.8196 54.4707 32.3819L54.4587 32.4329L54.4587 32.4329Z" transform="translate(253.74294 93.73374)" id="Shape" fill="#F2F2F2" fill-rule="evenodd" stroke="none" />
        <path d="M98.044 57.3312L4.84401 0.434158C3.82791 -0.154251 2.5723 -0.143906 1.56601 0.461159C0.559387 1.06692 -0.0393829 2.17106 0.00201416 3.34515L0.00201416 35.7572C-0.0059967 36.9497 0.611389 38.0593 1.62898 38.6811L94.84 94.3852C95.848 94.9652 97.09 94.9552 98.089 94.3592C99.0874 93.7629 99.6868 92.6747 99.657 91.5122L100.144 61.2812C100.186 59.6871 99.3888 58.1879 98.044 57.3312L98.044 57.3312Z" transform="translate(219.80464 69.06752)" id="Shape" fill="#68E1FD" fill-rule="evenodd" stroke="none" />
        <path d="M98.044 57.3312L4.84401 0.434158C3.82791 -0.154251 2.5723 -0.143906 1.56601 0.461159C0.559387 1.06692 -0.0393829 2.17106 0.00201416 3.34515L0.00201416 35.7572C-0.0059967 36.9497 0.611389 38.0593 1.62898 38.6811L94.84 94.3852C95.848 94.9652 97.09 94.9552 98.089 94.3592C99.0874 93.7629 99.6868 92.6747 99.657 91.5122L100.144 61.2812C100.186 59.6871 99.3888 58.1879 98.044 57.3312L98.044 57.3312Z" transform="translate(219.80464 69.06752)" id="Shape" fill="#68E1FD" fill-rule="evenodd" stroke="none" />
        <path d="M2.2261 15.6377C5.56909 20.3187 11.4501 21.6277 15.3441 18.5747C19.2391 15.5217 19.6871 9.24974 16.3441 4.58174C13.0001 -0.087265 7.11911 -1.40826 3.22513 1.64474C-0.668884 4.69675 -1.07886 10.9557 2.22513 15.6377L2.2261 15.6377Z" transform="translate(293.30557 127.44693)" id="Shape" fill="#FFFFFF" fill-rule="evenodd" stroke="none" />
        <path d="M56.0467 23.0569L18.0117 0.136932C17.3349 -0.180199 16.5279 0.0702972 16.1497 0.714935C15.7708 1.35974 15.9444 2.18697 16.5507 2.62494L54.5737 25.5449C55.2505 25.8621 56.0575 25.6116 56.4357 24.9669C56.8144 24.3219 56.6403 23.4946 56.0337 23.0569L56.0467 23.0569L56.0467 23.0569ZM54.4707 32.3819L2.06171 0.789932C1.38466 0.472969 0.577621 0.723923 0.199707 1.36893C-0.179016 2.01398 -0.00489807 2.84126 0.601685 3.27894L53.0107 34.8689C53.6875 35.1861 54.4945 34.9356 54.8727 34.2909C55.2514 33.6459 55.0773 32.8186 54.4707 32.3809L54.4707 32.3819Z" transform="translate(230.33797 97.55675)" id="Shape" fill="#F2F2F2" fill-rule="evenodd" stroke="none" />
        <path d="M14.3032 0C8.27933 5.1919 3.72473 11.8748 1.09515 19.38C-3.54285 32.207 8.05115 53.164 8.05115 53.164L26.0891 38.864" transform="translate(181.2275 123.216675)" id="Shape" fill="#FF8F6F" fill-rule="evenodd" stroke="none" />
        <path d="M4.89301 9.70898L0 7.00299L1.28 0C1.28 0 8.56999 0.691986 9.20999 3.28299" transform="translate(188.68965 283.08167)" id="Shape" fill="#003B94" fill-rule="evenodd" stroke="none" />
        <path d="M12.6219 24.704C13.7239 24.024 14.8769 23.421 16.0169 22.818C18.8469 21.266 22.9349 19.663 24.6769 16.751C25.4079 15.5453 25.3163 14.013 24.4469 12.903C21.8839 9.79901 16.2729 14.904 13.4029 11.467C12.8399 10.787 12.5709 0 12.5709 0L1.6559 2.95001C1.6559 2.95001 -0.189102 24.626 0.0158997 25.96C0.220901 27.294 3.9749 28.526 3.9749 28.526C5.09283 28.288 6.15968 27.8536 7.1259 27.243C8.2659 26.409 7.2279 16.238 8.6889 17.662C10.1489 19.0861 10.7889 24.652 10.7889 24.652C11.3959 24.744 12.0109 24.762 12.6219 24.703L12.6219 24.704Z" transform="translate(182.75478 267.98468)" id="Shape" fill="#F47B56" fill-rule="evenodd" stroke="none" />
        <path d="M4.894 9.66998L0 7.00299L1.28 0C1.28 0 8.56999 0.692993 9.20999 3.28299" transform="translate(209.53265 293.59866)" id="Shape" fill="#003B94" fill-rule="evenodd" stroke="none" />
        <path d="M12.6338 24.703C13.7358 24.023 14.8888 23.421 16.0288 22.818C18.8598 21.266 22.9468 19.663 24.6888 16.751C25.4198 15.5453 25.3282 14.013 24.4588 12.903C21.8958 9.79901 16.2848 14.904 13.4158 11.467C12.8518 10.787 12.5828 0 12.5828 0L1.6678 2.95001C1.6678 2.95001 -0.189194 24.703 0.0158081 25.986C0.22081 27.268 3.9738 28.551 3.9738 28.551C5.09207 28.3131 6.15927 27.8787 7.12579 27.268C8.26579 26.435 7.2278 16.264 8.6888 17.688C10.1488 19.1111 10.7888 24.678 10.7888 24.678C11.4004 24.7623 12.0201 24.7707 12.6338 24.703L12.6338 24.703Z" transform="translate(203.63689 278.46365)" id="Shape" fill="#F47B56" fill-rule="evenodd" stroke="none" />
        <path d="M3.216 0L0 43.058C0 43.058 5.125 50.138 22.304 46.2L22.47 17.174M23.06 8.53C22.688 12.236 23.06 53.126 23.06 53.126C23.06 53.126 27.812 62.027 48.502 53.126L48.207 18.38" transform="translate(175.64766 232.80267)" id="Shape" fill="#3E2928" fill-rule="evenodd" stroke="none" />
        <path d="M0 88.307C1.41 89.282 1.896 84.267 3.37 85.127C8.72908 88.2436 14.4176 90.7556 20.331 92.617L20.459 92.617C20.7436 92.4784 21.0724 92.4615 21.3697 92.5704C21.667 92.6792 21.9072 92.9044 22.035 93.194C25.6876 94.285 29.4062 95.1417 33.168 95.759C37.998 96.529 41.994 92.951 46.952 92.707C46.952 73.699 47.042 19.598 38.958 8.05499L15.04 0C14.925 1.97501 3.43399 15.314 3.715 31.578C4.035 49.906 1.653 67.196 1.243 72.929C1.179 73.904 0.052002 87.269 0 88.307L0 88.307Z" transform="translate(177.26166 158.71968)" id="Shape" fill="#3E2928" fill-rule="evenodd" stroke="none" />
        <path d="M27.735 1.283L25.532 23.087C25.532 23.087 7.687 23.806 0 18.496L0 0" transform="translate(190.68765 143.63567)" id="Shape" fill="#FF8F6F" fill-rule="evenodd" stroke="none" />
        <path d="M13.054 7.38972L11.235 9.87772C12.205 7.85372 13.061 5.77772 13.797 3.65772C14.31 2.20773 11.991 1.63072 11.479 3.07972L11.209 3.82372C11.432 3.05373 11.641 2.28072 11.837 1.50172C11.9477 1.08477 11.8251 0.640518 11.5162 0.339371C11.2073 0.0382233 10.7601 -0.0730515 10.3461 0.0482178C9.9321 0.169495 9.6156 0.504494 9.51801 0.924713C9.01558 2.93758 8.41284 4.92405 7.71201 6.87672C8.10364 5.14277 8.38618 3.386 8.558 1.61671C8.71201 0.091713 6.31599 0.155716 6.175 1.61671C5.97607 3.63058 5.61627 5.6253 5.09898 7.58173C5.099 6.89771 5.035 6.21372 4.907 5.52972C4.87183 5.18447 4.68964 4.87109 4.407 4.66972C4.34218 4.40142 4.26543 4.13616 4.17699 3.87471C3.9904 3.31979 3.43172 2.97952 2.85307 3.06836C2.27441 3.1572 1.84352 3.64939 1.832 4.23472L1.67799 13.2127C1.245 14.1427 0.679001 15.0077 0 15.7777C1.1528 16.5761 2.26456 17.4322 3.33098 18.3427C4.28221 19.1478 5.1889 20.0041 6.04703 20.9077C6.81274 19.9539 7.55167 18.9789 8.26295 17.9838C8.351 17.9087 8.429 17.8227 8.493 17.7267C10.6267 14.5654 12.8309 11.4523 15.104 8.38967C16.052 7.33772 13.964 6.17072 13.054 7.38972L13.054 7.38972Z" transform="translate(228.05666 123.17696)" id="Shape" fill="#FFB5A9" fill-rule="evenodd" stroke="none" />
        <path d="M0.0428619 0C0.0428619 0 8.47287 2.27 11.8929 7.695C14.0351 11.4508 15.9227 15.3462 17.5428 19.355L23.7679 9.67001C23.7679 9.67001 31.3269 11.992 34.3239 15.712C34.3239 15.712 25.3569 35.335 17.5419 37.016C9.72787 38.696 1.42587 25.498 1.42587 25.498C1.42587 25.498 -0.290131 31.013 0.0428772 25.126" transform="translate(207.0558 125.03867)" id="Shape" fill="#FF8F6F" fill-rule="evenodd" stroke="none" />
        <path d="M32.3074 45.2024C29.8567 43.2057 28.0076 40.5687 26.9654 37.5844C25.9524 34.1344 27.2214 31.1064 28.3994 27.9004C29.6755 24.7217 30.4201 21.3547 30.6033 17.9344C30.7054 14.5744 30.3214 11.2144 30.0904 7.86537C30.0575 7.72189 30.0575 7.57285 30.0904 7.42937C28.9634 3.64638 26.6574 0.439377 22.1104 0.0543747C10.3364 -0.945625 9.67036 12.1114 9.76036 17.4214C9.85036 22.7314 10.4134 26.3224 6.50636 28.5414C2.59836 30.7604 -0.219635 36.5834 3.50836 41.2914C7.23636 45.9974 3.89236 44.2794 1.40736 48.4604C-1.07764 52.6414 -0.437637 57.8624 4.66136 59.7474C9.76036 61.6324 33.4604 58.0924 35.6374 55.8994C36.4104 55.0155 36.8102 53.8661 36.7524 52.6934C36.2213 49.7428 34.6429 47.0831 32.3074 45.2034L32.3074 45.2024Z" transform="translate(180.1463 100.806305)" id="Shape" fill="#007F68" fill-rule="evenodd" stroke="none" />
        <path d="M17.3982 7.04689C19.3939 9.92294 20.5472 13.2989 20.7282 16.7949C20.9516 18.3954 20.5631 20.0213 19.6403 21.3479C18.8324 22.2381 17.523 22.4656 16.4622 21.8999C15.8148 21.6415 15.2298 21.2481 14.7462 20.7459C14.3113 20.3374 13.9399 19.8662 13.6442 19.3479L13.3372 18.7449C13.2533 18.9026 13.1498 19.049 13.0293 19.1809C12.7239 19.4188 12.3622 19.5735 11.9792 19.6299C11.3385 19.7486 10.6767 19.668 10.0832 19.3989C8.66684 18.7851 7.48854 17.7272 6.72624 16.3849C5.80727 14.9256 5.2943 13.2476 5.24025 11.5239C5.0506 10.1282 5.48683 8.71997 6.43225 7.67589C7.26311 6.87288 8.50853 6.67764 9.54526 7.18789C10.0583 7.3929 10.5313 7.68789 10.9413 8.06089C11.2913 8.35789 11.6003 8.6979 11.8633 9.07389L12.0932 9.48389L12.0932 8.3429L14.6563 9.3429L14.9122 16.5519C14.9303 17.0679 15.0902 17.5689 15.3743 18.0009C15.6143 18.4179 15.9832 18.7459 16.4243 18.9369C17.6623 19.4249 18.2343 18.3559 18.1413 15.7309C18.0123 13.1312 17.1553 10.6201 15.6682 8.48389C14.3328 6.31187 12.3472 4.61562 9.99324 3.63589C8.24553 2.74632 6.13159 3.01601 4.66324 4.3159C3.11301 5.87603 2.35455 8.0554 2.60124 10.2409C2.74731 12.99 3.63242 15.6488 5.16325 17.9369C6.38123 20.1954 8.30128 21.9962 10.6332 23.0669C11.4452 23.4069 12.3172 23.5769 13.1962 23.5669C13.7682 23.6059 14.3408 23.5003 14.8612 23.2599L15.3742 22.9769L16.9242 25.8629L16.6672 26.0429C16.424 26.1796 16.1718 26.2995 15.9122 26.4019C15.5022 26.5789 15.0722 26.6999 14.6302 26.7619C14.0651 26.8378 13.4924 26.8378 12.9272 26.7619C12.1846 26.6731 11.4567 26.4875 10.7623 26.2099C8.78879 25.36 7.03577 24.0702 5.63724 22.4389C3.97934 20.6034 2.63747 18.5056 1.66626 16.2309C0.693436 14.0577 0.137131 11.7213 0.0262604 9.3429C-0.111755 7.3429 0.296249 5.3439 1.20525 3.5589C1.95959 2.06124 3.26279 0.912445 4.84325 0.351898C6.49889 -0.193874 8.2986 -0.10223 9.89024 0.608902C12.9997 1.92484 15.6234 4.17458 17.3982 7.0469L17.3982 7.04689ZM11.7482 16.1669C12.1682 15.6289 12.3582 14.9459 12.2732 14.2679C12.2527 13.4323 12.019 12.6158 11.5942 11.8959C11.2473 11.2675 10.7023 10.7714 10.0442 10.4849C9.52751 10.218 8.89948 10.2997 8.46823 10.6899C8.02098 11.1996 7.81573 11.8777 7.90521 12.5499C7.93423 13.3959 8.18523 14.2189 8.63522 14.9349C9.00522 15.5869 9.57523 16.0999 10.2622 16.3979C10.7553 16.6507 11.3551 16.5574 11.7482 16.1669M168.655 145.928C170.654 148.802 171.808 152.179 171.985 155.676C172.209 157.276 171.82 158.902 170.897 160.229C170.087 161.114 168.781 161.341 167.72 160.781C167.074 160.519 166.49 160.126 166.003 159.627C165.571 159.216 165.199 158.745 164.901 158.228L164.594 157.626C164.507 157.782 164.404 157.928 164.286 158.062C163.982 158.302 163.62 158.457 163.236 158.511C162.601 158.639 161.942 158.562 161.353 158.293C159.935 157.676 158.756 156.613 157.996 155.266C157.069 153.805 156.551 152.122 156.497 150.392C156.3 148.996 156.738 147.584 157.689 146.544C158.516 145.743 159.757 145.549 160.789 146.057C161.303 146.261 161.776 146.556 162.185 146.929C162.535 147.231 162.845 147.576 163.108 147.955L163.351 148.365L163.351 147.224L165.913 148.211L166.17 155.42C166.192 155.935 166.351 156.435 166.63 156.869C166.872 157.286 167.24 157.614 167.681 157.805C168.962 158.293 169.488 157.228 169.411 154.599C169.281 151.995 168.425 149.48 166.938 147.339C165.603 145.175 163.623 143.484 161.276 142.504C159.531 141.615 157.419 141.879 155.946 143.171C154.404 144.749 153.664 146.945 153.936 149.135C154.08 151.884 154.965 154.543 156.497 156.83C157.763 159.035 159.703 160.775 162.032 161.794C162.844 162.132 163.715 162.307 164.594 162.307C165.166 162.34 165.737 162.235 166.259 161.999L166.772 161.717L168.322 164.603L168.066 164.783C167.823 164.92 167.57 165.04 167.31 165.142C166.898 165.312 166.468 165.432 166.029 165.501C165.459 165.577 164.882 165.577 164.312 165.501C163.573 165.407 162.85 165.218 162.16 164.937C160.188 164.09 158.435 162.805 157.035 161.178C155.377 159.338 154.036 157.236 153.065 154.958C152.092 152.785 151.535 150.448 151.425 148.07C151.286 146.075 151.693 144.079 152.603 142.298C153.36 140.799 154.661 139.647 156.241 139.079C157.902 138.538 159.704 138.63 161.301 139.336C164.375 140.721 166.944 143.024 168.655 145.928L168.655 145.928ZM163.005 155.048C163.43 154.512 163.624 153.828 163.543 153.149C163.521 152.312 163.283 151.495 162.852 150.777C162.511 150.148 161.97 149.651 161.314 149.366C160.8 149.096 160.173 149.172 159.739 149.558C159.284 150.063 159.073 150.743 159.162 151.418C159.192 152.26 159.443 153.078 159.892 153.791C160.261 154.446 160.832 154.963 161.519 155.266C162.01 155.522 162.609 155.434 163.005 155.048" transform="translate(206.63641 31.273787)" id="Shape" fill="#F47B56" fill-rule="evenodd" stroke="none" />
        <path d="M86.716 24.704L43.351 0L0 24.754C0 24.754 24.122 39.837 45.709 52.51C59.416 42.813 71.599 31.719 86.716 24.703L86.716 24.704Z" transform="translate(33.281662 207.18867)" id="Shape" fill="url(#gradient_5)" fill-opacity="0.25" style="mix-blend-mode: multiply;" fill-rule="evenodd" stroke="none" />
      </g>
    </g>
  </g>
  <g id="illustration-box-desktop" transform="translate(0.9999523 152.99997)">
    <path d="M0 0L149.641 0L149.641 144.157L0 144.157L0 0Z" id="Background" fill="none" fill-rule="evenodd" stroke="none" />
    <g clip-path="url(#mask_2)">
      <g id="Group" transform="translate(39.901733 1.6656342)">
        <g id="Group" transform="translate(0 18.618988)">
          <path d="M0 3.12602L0 45.3311L32.8803 64.1617L70.0063 42.2051L70.0063 0" id="b" fill="#000000" fill-rule="evenodd" stroke="none" />
          <path d="M0 3.12602L0 45.3311L32.8803 64.1617L70.0063 42.2051L70.0063 0" id="b" fill="#FF9271" fill-rule="evenodd" stroke="none" />
        </g>
        <path d="M0 21.9573L0 64.1624L37.1259 42.2051L37.1259 0L0 21.9573Z" transform="translate(32.881134 18.618988)" id="Shape" fill="#DF5C34" fill-rule="evenodd" stroke="none" />
        <path d="M0 21.7442L38.1499 0L70.0071 18.6205L32.8811 40.5771L0 21.7442Z" id="Shape" fill="#F47B56" fill-rule="evenodd" stroke="none" />
        <path d="M16.1499 0.0461727C20.018 -0.214979 23.8801 0.635621 27.2806 2.49763C29.2282 3.64305 30.2922 4.83861 30.4426 6.0851C30.593 7.33081 29.9506 8.4159 28.4354 9.33099C27.7167 9.77506 26.9248 10.0881 26.0968 10.2555C25.4159 10.4161 24.7179 10.4866 24.019 10.4662L23.2559 10.4059C23.3272 10.5759 23.3742 10.7553 23.3969 10.9387C23.373 11.3724 23.2343 11.792 22.995 12.1546C22.5977 12.8286 22.0303 13.3865 21.3498 13.7724C19.7635 14.7149 17.9453 15.1952 16.1006 15.1592C14.1917 15.2105 12.3056 14.7342 10.65 13.7826C9.08387 12.8581 8.2816 11.7723 8.22128 10.5265C8.23331 9.18026 9.01266 7.95896 10.2285 7.38093C10.8003 7.02436 11.4229 6.75676 12.0751 6.5873C12.5952 6.43714 13.1306 6.3462 13.671 6.31622L14.2234 6.31622L13.219 5.71295L16.0395 3.95487L22.5735 7.80323C23.5884 8.34968 24.81 8.34968 25.8249 7.80323C27.2108 6.93907 26.7157 5.80384 24.3402 4.39674C21.8157 3.00665 18.9458 2.36857 16.07 2.55795C13.022 2.59535 10.0402 3.45269 7.43784 5.03996C5.06942 6.5207 3.89501 8.28585 3.91538 10.3362C3.91538 12.345 5.1697 14.1344 7.60862 15.5713C10.2706 17.0601 13.2938 17.7802 16.3411 17.6514C19.3748 17.7009 22.3628 16.9076 24.9725 15.3597C25.8759 14.8244 26.6861 14.1457 27.3715 13.3501C27.8297 12.8633 28.1725 12.2796 28.3743 11.6422L28.5153 11.0092L32.2391 11.2199C32.2454 11.3335 32.2454 11.4471 32.2391 11.5615C32.171 11.8691 32.0804 12.1713 31.968 12.4656C31.8063 12.938 31.5907 13.3901 31.3256 13.8132C30.9432 14.3825 30.4991 14.908 30.0015 15.3801C29.3451 16.0135 28.6213 16.573 27.8431 17.0489C25.6023 18.394 23.1203 19.2882 20.5365 19.6813C17.7209 20.173 14.846 20.2238 12.0148 19.8317C9.44121 19.5284 6.95386 18.7153 4.69805 17.4398C2.87658 16.4754 1.41809 14.9449 0.542575 13.0791C-0.180856 11.4333 -0.180856 9.5595 0.542575 7.9137C1.40985 6.01376 2.85334 4.43514 4.66828 3.40174C8.12645 1.27625 12.0914 0.1172 16.1499 0.0453867L16.1499 0.0461727ZM19.8032 10.4364C19.67 9.73838 19.1999 9.15157 18.5489 8.86874C17.7583 8.40282 16.8576 8.15643 15.9399 8.155C15.0868 8.12265 14.2427 8.33906 13.5104 8.77785C12.9089 9.07146 12.5217 9.67637 12.5068 10.3456C12.5985 11.0428 13.0474 11.6414 13.6914 11.9235C14.5001 12.3855 15.4194 12.6185 16.3505 12.5972C17.2457 12.6196 18.1291 12.3896 18.8999 11.9336C19.4839 11.6662 19.8543 11.0787 19.8439 10.4364" transform="translate(17.604 9.640564)" id="Shape" fill="#3E2928" fill-rule="evenodd" stroke="none" />
      </g>
    </g>
  </g>
</svg>